<?xml version="1.0" encoding="UTF-8"?><svg xmlns="http://www.w3.org/2000/svg" width="960" height="540" viewBox="0 0 960 540" role="img" aria-label="Amplification"><rect x="0" y="0" width="960" height="540" fill="#ffffff"/><text x="480.000" y="22.000" text-anchor="middle" fill="#111827" font-size="16" font-family="Arial, sans-serif">Amplification</text><g><rect x="22.000" y="42.000" width="448.000" height="222.000" fill="#ffffff" stroke="#d1d5db"/><text x="246.000" y="59.000" text-anchor="middle" fill="#111827" font-size="12" font-family="Arial, sans-serif">Write amplification</text><text x="30.000" y="76.000" text-anchor="start" fill="#374151" font-size="8" font-family="Arial, sans-serif">(SSTable write bytes + MANIFEST write bytes) / logical user-write bytes</text><line x1="70.000" y1="86.000" x2="456.000" y2="86.000" stroke="#e5e7eb" stroke-width="1" stroke-linecap="round"/><text x="66.000" y="89.000" text-anchor="end" fill="#6b7280" font-size="8" font-family="Arial, sans-serif">4.370731</text><line x1="70.000" y1="158.000" x2="456.000" y2="158.000" stroke="#e5e7eb" stroke-width="1" stroke-linecap="round"/><text x="66.000" y="161.000" text-anchor="end" fill="#6b7280" font-size="8" font-family="Arial, sans-serif">2.185365</text><line x1="70.000" y1="230.000" x2="456.000" y2="230.000" stroke="#e5e7eb" stroke-width="1" stroke-linecap="round"/><text x="66.000" y="233.000" text-anchor="end" fill="#6b7280" font-size="8" font-family="Arial, sans-serif">0.000000</text><line x1="70.000" y1="86.000" x2="70.000" y2="230.000" stroke="#9ca3af" stroke-width="1" stroke-linecap="round"/><line x1="70.000" y1="230.000" x2="456.000" y2="230.000" stroke="#9ca3af" stroke-width="1" stroke-linecap="round"/><rect x="245.000" y="99.122" width="36.000" height="130.878" fill="#1f77b4"/><line x1="263.000" y1="99.174" x2="263.000" y2="99.091" stroke="#111827" stroke-width="1" stroke-linecap="round"/><line x1="258.000" y1="99.174" x2="268.000" y2="99.174" stroke="#111827" stroke-width="1" stroke-linecap="round"/><line x1="258.000" y1="99.091" x2="268.000" y2="99.091" stroke="#111827" stroke-width="1" stroke-linecap="round"/><text x="263.000" y="245.000" text-anchor="middle" fill="#6b7280" font-size="9" font-family="Arial, sans-serif">median across trials</text></g><g><rect x="490.000" y="42.000" width="448.000" height="222.000" fill="#ffffff" stroke="#d1d5db"/><text x="714.000" y="59.000" text-anchor="middle" fill="#111827" font-size="12" font-family="Arial, sans-serif">SSTable bytes per read</text><text x="498.000" y="76.000" text-anchor="start" fill="#374151" font-size="8" font-family="Arial, sans-serif">SSTable read bytes / read operations</text><line x1="538.000" y1="86.000" x2="924.000" y2="86.000" stroke="#e5e7eb" stroke-width="1" stroke-linecap="round"/><text x="534.000" y="89.000" text-anchor="end" fill="#6b7280" font-size="8" font-family="Arial, sans-serif">10156.175128</text><line x1="538.000" y1="158.000" x2="924.000" y2="158.000" stroke="#e5e7eb" stroke-width="1" stroke-linecap="round"/><text x="534.000" y="161.000" text-anchor="end" fill="#6b7280" font-size="8" font-family="Arial, sans-serif">5078.087564</text><line x1="538.000" y1="230.000" x2="924.000" y2="230.000" stroke="#e5e7eb" stroke-width="1" stroke-linecap="round"/><text x="534.000" y="233.000" text-anchor="end" fill="#6b7280" font-size="8" font-family="Arial, sans-serif">0.000000</text><line x1="538.000" y1="86.000" x2="538.000" y2="230.000" stroke="#9ca3af" stroke-width="1" stroke-linecap="round"/><line x1="538.000" y1="230.000" x2="924.000" y2="230.000" stroke="#9ca3af" stroke-width="1" stroke-linecap="round"/><rect x="713.000" y="99.735" width="36.000" height="130.265" fill="#1f77b4"/><line x1="731.000" y1="99.739" x2="731.000" y2="99.091" stroke="#111827" stroke-width="1" stroke-linecap="round"/><line x1="726.000" y1="99.739" x2="736.000" y2="99.739" stroke="#111827" stroke-width="1" stroke-linecap="round"/><line x1="726.000" y1="99.091" x2="736.000" y2="99.091" stroke="#111827" stroke-width="1" stroke-linecap="round"/><text x="731.000" y="245.000" text-anchor="middle" fill="#6b7280" font-size="9" font-family="Arial, sans-serif">median across trials</text></g><g><rect x="22.000" y="288.000" width="448.000" height="222.000" fill="#ffffff" stroke="#d1d5db"/><text x="246.000" y="305.000" text-anchor="middle" fill="#111827" font-size="12" font-family="Arial, sans-serif">SSTable reads per read</text><text x="30.000" y="322.000" text-anchor="start" fill="#374151" font-size="8" font-family="Arial, sans-serif">SSTable read calls / read operations</text><line x1="70.000" y1="332.000" x2="456.000" y2="332.000" stroke="#e5e7eb" stroke-width="1" stroke-linecap="round"/><text x="66.000" y="335.000" text-anchor="end" fill="#6b7280" font-size="8" font-family="Arial, sans-serif">2.530264</text><line x1="70.000" y1="404.000" x2="456.000" y2="404.000" stroke="#e5e7eb" stroke-width="1" stroke-linecap="round"/><text x="66.000" y="407.000" text-anchor="end" fill="#6b7280" font-size="8" font-family="Arial, sans-serif">1.265132</text><line x1="70.000" y1="476.000" x2="456.000" y2="476.000" stroke="#e5e7eb" stroke-width="1" stroke-linecap="round"/><text x="66.000" y="479.000" text-anchor="end" fill="#6b7280" font-size="8" font-family="Arial, sans-serif">0.000000</text><line x1="70.000" y1="332.000" x2="70.000" y2="476.000" stroke="#9ca3af" stroke-width="1" stroke-linecap="round"/><line x1="70.000" y1="476.000" x2="456.000" y2="476.000" stroke="#9ca3af" stroke-width="1" stroke-linecap="round"/><rect x="245.000" y="345.669" width="36.000" height="130.331" fill="#1f77b4"/><line x1="263.000" y1="345.728" x2="263.000" y2="345.091" stroke="#111827" stroke-width="1" stroke-linecap="round"/><line x1="258.000" y1="345.728" x2="268.000" y2="345.728" stroke="#111827" stroke-width="1" stroke-linecap="round"/><line x1="258.000" y1="345.091" x2="268.000" y2="345.091" stroke="#111827" stroke-width="1" stroke-linecap="round"/><text x="263.000" y="491.000" text-anchor="middle" fill="#6b7280" font-size="9" font-family="Arial, sans-serif">median across trials</text></g><g><rect x="490.000" y="288.000" width="448.000" height="222.000" fill="#ffffff" stroke="#d1d5db"/><text x="714.000" y="305.000" text-anchor="middle" fill="#111827" font-size="12" font-family="Arial, sans-serif">Space amplification</text><text x="498.000" y="322.000" text-anchor="start" fill="#374151" font-size="8" font-family="Arial, sans-serif">Referenced SSTable bytes / logical live bytes</text><line x1="538.000" y1="332.000" x2="924.000" y2="332.000" stroke="#e5e7eb" stroke-width="1" stroke-linecap="round"/><text x="534.000" y="335.000" text-anchor="end" fill="#6b7280" font-size="8" font-family="Arial, sans-serif">2.810929</text><line x1="538.000" y1="404.000" x2="924.000" y2="404.000" stroke="#e5e7eb" stroke-width="1" stroke-linecap="round"/><text x="534.000" y="407.000" text-anchor="end" fill="#6b7280" font-size="8" font-family="Arial, sans-serif">1.405464</text><line x1="538.000" y1="476.000" x2="924.000" y2="476.000" stroke="#e5e7eb" stroke-width="1" stroke-linecap="round"/><text x="534.000" y="479.000" text-anchor="end" fill="#6b7280" font-size="8" font-family="Arial, sans-serif">0.000000</text><line x1="538.000" y1="332.000" x2="538.000" y2="476.000" stroke="#9ca3af" stroke-width="1" stroke-linecap="round"/><line x1="538.000" y1="476.000" x2="924.000" y2="476.000" stroke="#9ca3af" stroke-width="1" stroke-linecap="round"/><rect x="713.000" y="345.569" width="36.000" height="130.431" fill="#1f77b4"/><line x1="731.000" y1="345.644" x2="731.000" y2="345.091" stroke="#111827" stroke-width="1" stroke-linecap="round"/><line x1="726.000" y1="345.644" x2="736.000" y2="345.644" stroke="#111827" stroke-width="1" stroke-linecap="round"/><line x1="726.000" y1="345.091" x2="736.000" y2="345.091" stroke="#111827" stroke-width="1" stroke-linecap="round"/><text x="731.000" y="491.000" text-anchor="middle" fill="#6b7280" font-size="9" font-family="Arial, sans-serif">median across trials</text></g></svg>